<svg width="105" height="23" viewBox="0 0 105 23" fill="none" xmlns="http://www.w3.org/2000/svg">
<path d="M4.27344 8.92969H5.46875C6.58594 8.92969 7.42188 8.71094 7.97656 8.27344C8.53125 7.82812 8.80859 7.18359 8.80859 6.33984C8.80859 5.48828 8.57422 4.85938 8.10547 4.45312C7.64453 4.04688 6.91797 3.84375 5.92578 3.84375H4.27344V8.92969ZM12.4766 6.21094C12.4766 8.05469 11.8984 9.46484 10.7422 10.4414C9.59375 11.418 7.95703 11.9062 5.83203 11.9062H4.27344V18H0.640625V0.867188H6.11328C8.19141 0.867188 9.76953 1.31641 10.8477 2.21484C11.9336 3.10547 12.4766 4.4375 12.4766 6.21094ZM25.5781 18H15.7109V0.867188H25.5781V3.84375H19.3438V7.60547H25.1445V10.582H19.3438V15H25.5781V18ZM32.7969 8.92969H33.9922C35.1094 8.92969 35.9453 8.71094 36.5 8.27344C37.0547 7.82812 37.332 7.18359 37.332 6.33984C37.332 5.48828 37.0977 4.85938 36.6289 4.45312C36.168 4.04688 35.4414 3.84375 34.4492 3.84375H32.7969V8.92969ZM41 6.21094C41 8.05469 40.4219 9.46484 39.2656 10.4414C38.1172 11.418 36.4805 11.9062 34.3555 11.9062H32.7969V18H29.1641V0.867188H34.6367C36.7148 0.867188 38.293 1.31641 39.3711 2.21484C40.457 3.10547 41 4.4375 41 6.21094ZM54.1016 13.4414C54.1016 14.9492 53.5547 16.125 52.4609 16.9688C51.3672 17.8125 49.8828 18.2344 48.0078 18.2344C45.9766 18.2344 44.4141 17.9727 43.3203 17.4492V15.5273C44.0234 15.8242 44.7891 16.0586 45.6172 16.2305C46.4453 16.4023 47.2656 16.4883 48.0781 16.4883C49.4062 16.4883 50.4062 16.2383 51.0781 15.7383C51.75 15.2305 52.0859 14.5273 52.0859 13.6289C52.0859 13.0352 51.9648 12.5508 51.7227 12.1758C51.4883 11.793 51.0898 11.4414 50.5273 11.1211C49.9727 10.8008 49.125 10.4375 47.9844 10.0312C46.3906 9.46094 45.25 8.78516 44.5625 8.00391C43.8828 7.22266 43.543 6.20312 43.543 4.94531C43.543 3.625 44.0391 2.57422 45.0312 1.79297C46.0234 1.01172 47.3359 0.621094 48.9688 0.621094C50.6719 0.621094 52.2383 0.933594 53.668 1.55859L53.0469 3.29297C51.6328 2.69922 50.2578 2.40234 48.9219 2.40234C47.8672 2.40234 47.043 2.62891 46.4492 3.08203C45.8555 3.53516 45.5586 4.16406 45.5586 4.96875C45.5586 5.5625 45.668 6.05078 45.8867 6.43359C46.1055 6.80859 46.4727 7.15625 46.9883 7.47656C47.5117 7.78906 48.3086 8.13672 49.3789 8.51953C51.1758 9.16016 52.4102 9.84766 53.082 10.582C53.7617 11.3164 54.1016 12.2695 54.1016 13.4414ZM55.1094 22.5117C54.375 22.5117 53.7969 22.4062 53.375 22.1953V20.4961C53.9297 20.6523 54.5078 20.7305 55.1094 20.7305C55.8828 20.7305 56.4688 20.4961 56.8672 20.0273C57.2734 19.5586 57.4766 18.8828 57.4766 18V0.867188H59.4688V17.8359C59.4688 19.3203 59.0938 20.4688 58.3438 21.2812C57.5938 22.1016 56.5156 22.5117 55.1094 22.5117ZM73.5781 18H64.0273V0.867188H73.5781V2.63672H66.0195V8.15625H73.1211V9.91406H66.0195V16.2188H73.5781V18ZM89.7617 18H87.418L81.1719 9.69141L79.3789 11.2852V18H77.3867V0.867188H79.3789V9.36328L87.1484 0.867188H89.5039L82.6133 8.30859L89.7617 18ZM104.504 18H102.16L95.9141 9.69141L94.1211 11.2852V18H92.1289V0.867188H94.1211V9.36328L101.891 0.867188H104.246L97.3555 8.30859L104.504 18Z" fill="#A52020"/>
</svg>
